<svg width="17" height="19" viewBox="0 0 17 19" fill="none" xmlns="http://www.w3.org/2000/svg">
<g clip-path="url(#clip0_1_1052)">
<path d="M14.5625 2.52002C15.0312 2.52002 15.4297 2.68408 15.7578 3.01221C16.0859 3.34033 16.25 3.73877 16.25 4.20752V16.5825C16.25 17.0513 16.0859 17.4497 15.7578 17.7778C15.4297 18.106 15.0312 18.27 14.5625 18.27H2.1875C1.71875 18.27 1.32031 18.106 0.992188 17.7778C0.664063 17.4497 0.5 17.0513 0.5 16.5825V4.20752C0.5 3.73877 0.664063 3.34033 0.992188 3.01221C1.32031 2.68408 1.71875 2.52002 2.1875 2.52002H3.875V0.691895C3.875 0.410645 4.01562 0.27002 4.29688 0.27002H4.57812C4.85938 0.27002 5 0.410645 5 0.691895V2.52002H11.75V0.691895C11.75 0.410645 11.8906 0.27002 12.1719 0.27002H12.4531C12.7344 0.27002 12.875 0.410645 12.875 0.691895V2.52002H14.5625ZM2.1875 3.64502C2.02344 3.64502 1.88867 3.69775 1.7832 3.80322C1.67773 3.90869 1.625 4.04346 1.625 4.20752V5.89502H15.125V4.20752C15.125 4.04346 15.0723 3.90869 14.9668 3.80322C14.8613 3.69775 14.7266 3.64502 14.5625 3.64502H2.1875ZM14.5625 17.145C14.7266 17.145 14.8613 17.0923 14.9668 16.9868C15.0723 16.8813 15.125 16.7466 15.125 16.5825V7.02002H1.625V16.5825C1.625 16.7466 1.67773 16.8813 1.7832 16.9868C1.88867 17.0923 2.02344 17.145 2.1875 17.145H14.5625ZM5.70312 11.52H4.29688C4.01562 11.52 3.875 11.3794 3.875 11.0981V9.69189C3.875 9.41064 4.01562 9.27002 4.29688 9.27002H5.70312C5.98438 9.27002 6.125 9.41064 6.125 9.69189V11.0981C6.125 11.3794 5.98438 11.52 5.70312 11.52ZM9.07812 11.52H7.67188C7.39062 11.52 7.25 11.3794 7.25 11.0981V9.69189C7.25 9.41064 7.39062 9.27002 7.67188 9.27002H9.07812C9.35938 9.27002 9.5 9.41064 9.5 9.69189V11.0981C9.5 11.3794 9.35938 11.52 9.07812 11.52ZM12.4531 11.52H11.0469C10.7656 11.52 10.625 11.3794 10.625 11.0981V9.69189C10.625 9.41064 10.7656 9.27002 11.0469 9.27002H12.4531C12.7344 9.27002 12.875 9.41064 12.875 9.69189V11.0981C12.875 11.3794 12.7344 11.52 12.4531 11.52ZM9.07812 14.895H7.67188C7.39062 14.895 7.25 14.7544 7.25 14.4731V13.0669C7.25 12.7856 7.39062 12.645 7.67188 12.645H9.07812C9.35938 12.645 9.5 12.7856 9.5 13.0669V14.4731C9.5 14.7544 9.35938 14.895 9.07812 14.895ZM5.70312 14.895H4.29688C4.01562 14.895 3.875 14.7544 3.875 14.4731V13.0669C3.875 12.7856 4.01562 12.645 4.29688 12.645H5.70312C5.98438 12.645 6.125 12.7856 6.125 13.0669V14.4731C6.125 14.7544 5.98438 14.895 5.70312 14.895ZM12.4531 14.895H11.0469C10.7656 14.895 10.625 14.7544 10.625 14.4731V13.0669C10.625 12.7856 10.7656 12.645 11.0469 12.645H12.4531C12.7344 12.645 12.875 12.7856 12.875 13.0669V14.4731C12.875 14.7544 12.7344 14.895 12.4531 14.895Z" fill="#E9E4E1"/>
</g>
<defs>
<clipPath id="clip0_1_1052">
<rect width="15.75" height="18" fill="white" transform="matrix(1 0 0 -1 0.5 18.27)"/>
</clipPath>
</defs>
</svg>
