<svg width="27" height="27" viewBox="0 0 27 27" fill="none" xmlns="http://www.w3.org/2000/svg">
<rect x="0.900024" y="0.27002" width="26" height="26" rx="13" fill="black"/>
<g clip-path="url(#clip0_1_1040)">
<path d="M16.366 14.5825C17.3686 14.5825 18.2299 14.9425 18.95 15.6626C19.67 16.3826 20.03 17.244 20.03 18.2466V18.9575C20.03 19.3221 19.9024 19.632 19.6472 19.8872C19.392 20.1424 19.0821 20.27 18.7175 20.27H9.09253C8.72795 20.27 8.41805 20.1424 8.16284 19.8872C7.90763 19.632 7.78003 19.3221 7.78003 18.9575V18.2466C7.78003 17.244 8.14006 16.3826 8.86011 15.6626C9.58016 14.9425 10.4415 14.5825 11.4441 14.5825C11.6811 14.5825 12.032 14.6554 12.4968 14.8013C12.9617 14.9471 13.4311 15.02 13.905 15.02C14.379 15.02 14.8529 14.9471 15.3269 14.8013C15.8009 14.6554 16.1472 14.5825 16.366 14.5825ZM18.7175 18.9575V18.2466C18.7175 17.6086 18.4851 17.0571 18.0203 16.5923C17.5554 16.1274 17.004 15.895 16.366 15.895C16.3113 15.895 16.0242 15.9679 15.5046 16.1138C14.9851 16.2596 14.4519 16.3325 13.905 16.3325C13.3582 16.3325 12.825 16.2596 12.3054 16.1138C11.7859 15.9679 11.4988 15.895 11.4441 15.895C10.8061 15.895 10.2546 16.1274 9.78979 16.5923C9.32495 17.0571 9.09253 17.6086 9.09253 18.2466V18.9575H18.7175ZM16.6941 12.9966C16.6941 12.9966 16.5027 13.188 16.1199 13.5708C15.7371 13.9536 14.9988 14.145 13.905 14.145C12.8113 14.145 11.8816 13.7622 11.116 12.9966C10.3503 12.231 9.96753 11.3013 9.96753 10.2075C9.96753 9.11377 10.3503 8.18408 11.116 7.41846C11.8816 6.65283 12.8113 6.27002 13.905 6.27002C14.9988 6.27002 15.9285 6.65283 16.6941 7.41846C17.4597 8.18408 17.8425 9.11377 17.8425 10.2075C17.8425 11.3013 17.4597 12.231 16.6941 12.9966ZM15.7644 8.34814C15.7644 8.34814 15.6368 8.22054 15.3816 7.96533C15.1264 7.71012 14.6342 7.58252 13.905 7.58252C13.1759 7.58252 12.5561 7.83773 12.0457 8.34814C11.5352 8.85856 11.28 9.47835 11.28 10.2075C11.28 10.9367 11.5352 11.5565 12.0457 12.0669C12.5561 12.5773 13.1759 12.8325 13.905 12.8325C14.6342 12.8325 15.254 12.5773 15.7644 12.0669C16.2748 11.5565 16.53 10.9367 16.53 10.2075C16.53 9.47835 16.2748 8.85856 15.7644 8.34814Z" fill="#E9E4E1"/>
</g>
<defs>
<clipPath id="clip0_1_1040">
<rect width="12.25" height="14" fill="white" transform="matrix(1 0 0 -1 7.78003 20.27)"/>
</clipPath>
</defs>
</svg>
