<?xml version="1.0" standalone="no"?>
<!DOCTYPE svg PUBLIC "-//W3C//DTD SVG 20010904//EN"
 "http://www.w3.org/TR/2001/REC-SVG-20010904/DTD/svg10.dtd">
<svg version="1.0" xmlns="http://www.w3.org/2000/svg"
 width="520.000000pt" height="520.000000pt" viewBox="0 0 520.000000 520.000000"
 preserveAspectRatio="xMidYMid meet">
<metadata>
Created by potrace 1.14, written by Peter Selinger 2001-2017
</metadata>
<g transform="translate(0.000000,520.000000) scale(0.100000,-0.100000)"
fill="#000000" stroke="none">
<path d="M2920 4130 c0 -6 -30 -10 -71 -10 -47 0 -75 -5 -84 -14 -10 -9 -31
-13 -64 -11 -34 2 -50 -1 -48 -8 1 -7 -15 -12 -42 -12 -25 -1 -46 -6 -49 -13
-2 -7 -19 -12 -38 -12 -21 0 -33 -4 -29 -10 4 -6 -8 -10 -29 -10 -19 0 -36 -4
-38 -10 -1 -5 -18 -10 -35 -12 -18 -1 -33 -7 -33 -13 0 -6 -10 -12 -22 -12
-13 -1 -24 -7 -26 -13 -2 -5 -17 -10 -33 -10 -16 0 -29 -4 -29 -10 0 -5 -12
-10 -26 -10 -14 0 -23 -4 -19 -10 5 -9 -15 -15 -37 -11 -5 0 -8 -6 -8 -15 0
-8 -5 -12 -10 -9 -6 3 -13 -1 -16 -9 -3 -9 -15 -16 -25 -16 -10 0 -19 -4 -19
-10 0 -5 -8 -10 -18 -10 -20 0 -56 -33 -46 -43 3 -3 -2 -4 -13 -3 -10 2 -29
-7 -42 -20 -13 -13 -30 -24 -37 -24 -7 0 -33 -20 -57 -45 -25 -25 -52 -45 -60
-45 -8 0 -18 -7 -21 -16 -3 -8 -10 -12 -16 -9 -5 3 -10 1 -10 -5 0 -12 -156
-170 -169 -170 -5 0 -8 -8 -6 -17 1 -10 -13 -32 -31 -49 -19 -18 -34 -38 -34
-46 0 -9 -11 -24 -25 -34 -14 -10 -23 -24 -21 -30 2 -6 -7 -23 -20 -37 -13
-14 -24 -33 -24 -40 0 -8 -7 -18 -16 -21 -9 -4 -14 -9 -11 -13 4 -3 -5 -25
-18 -50 -14 -24 -25 -55 -25 -68 0 -14 -4 -25 -10 -25 -5 0 -10 -13 -10 -29 0
-16 -6 -34 -14 -40 -7 -6 -12 -27 -11 -47 1 -21 -4 -38 -13 -43 -7 -4 -13 -11
-13 -14 4 -32 5 -32 -584 -31 -322 0 -585 -3 -585 -7 0 -12 -49 -59 -62 -59
-5 0 -8 -7 -4 -15 3 -8 -1 -21 -9 -29 -9 -9 -15 -34 -15 -65 0 -28 -4 -51 -10
-51 -5 0 -10 -16 -10 -35 0 -19 5 -35 10 -35 6 0 10 -23 10 -51 0 -32 6 -56
16 -66 8 -9 13 -22 10 -29 -3 -8 -1 -14 5 -14 5 0 24 -15 42 -32 l33 -33 306
1 c217 1 308 -2 311 -10 3 -8 84 -11 271 -11 267 0 269 0 265 -32 0 -3 6 -10
14 -14 9 -5 13 -21 12 -44 -2 -24 2 -38 11 -42 8 -3 14 -19 14 -39 0 -19 5
-34 10 -34 6 0 10 -9 10 -20 0 -11 5 -20 10 -20 6 0 10 -9 10 -20 0 -11 6 -23
14 -26 8 -3 13 -14 11 -24 -2 -10 3 -21 11 -24 8 -3 14 -15 14 -26 0 -11 5
-20 10 -20 6 0 10 -7 10 -16 0 -9 9 -25 21 -35 11 -10 22 -25 23 -33 1 -8 12
-24 24 -34 12 -11 22 -27 22 -36 0 -20 23 -46 40 -46 6 0 8 -4 5 -10 -3 -5 2
-10 11 -10 10 0 15 -3 12 -6 -8 -7 48 -64 62 -64 6 0 9 -3 7 -7 -5 -10 30 -43
37 -36 3 4 6 1 6 -6 0 -15 45 -61 60 -61 5 0 10 -3 10 -7 0 -14 47 -63 59 -63
7 0 9 -5 6 -10 -4 -6 5 -10 19 -10 17 0 26 -6 26 -16 0 -8 5 -12 10 -9 5 3 10
-1 10 -9 0 -10 9 -16 23 -16 12 0 30 -11 41 -24 10 -14 23 -23 30 -20 7 3 21
-7 32 -21 10 -14 27 -25 36 -25 10 0 18 -4 18 -10 0 -5 9 -10 20 -10 11 0 23
-7 26 -15 4 -8 10 -12 15 -9 5 3 9 -1 9 -9 0 -11 10 -14 31 -13 18 1 33 -3 36
-11 3 -7 14 -13 24 -13 10 0 19 -4 19 -10 0 -5 11 -10 24 -10 13 0 26 -7 30
-15 4 -10 14 -14 31 -11 17 3 28 0 32 -10 3 -7 9 -12 13 -9 5 3 15 -2 23 -10
9 -8 33 -15 56 -15 23 0 41 -4 41 -10 0 -5 16 -10 35 -10 22 0 35 -5 35 -13 0
-10 14 -13 51 -11 33 1 52 -2 55 -11 4 -9 24 -12 66 -11 39 1 65 -3 74 -11 9
-9 53 -13 163 -13 94 0 151 -4 151 -10 0 -5 11 -10 25 -10 14 0 25 5 25 10 0
6 58 10 154 10 115 0 155 3 159 13 3 8 26 12 71 11 47 0 66 3 66 12 0 8 14 11
41 10 27 -2 43 2 46 11 3 8 22 13 50 13 27 0 42 4 38 10 -4 6 8 10 29 10 19 0
36 5 38 12 2 6 18 11 36 10 22 0 32 4 32 14 0 10 8 13 25 10 14 -3 31 2 39 10
8 8 24 14 36 14 12 0 18 5 15 10 -3 6 5 10 18 10 14 0 27 7 30 15 4 8 15 12
26 10 12 -2 20 1 18 8 -1 7 7 12 17 12 11 0 21 6 24 13 2 6 15 12 28 12 14 0
22 4 19 10 -3 6 5 10 18 10 14 0 28 7 31 16 3 8 10 12 16 9 5 -3 21 5 34 19
13 14 29 26 36 26 7 0 22 10 34 23 12 13 26 22 32 20 5 -2 31 19 56 46 26 27
49 47 52 43 3 -3 6 2 6 11 0 12 8 17 26 17 14 0 23 4 19 10 -3 6 -1 10 5 10
14 0 40 25 40 39 0 6 3 10 8 9 4 -2 8 1 9 5 1 5 9 14 19 21 9 7 14 18 10 24
-4 7 -1 12 8 12 9 0 16 7 16 16 0 8 5 12 10 9 6 -3 10 0 10 8 0 7 10 19 23 26
21 11 23 19 23 102 -1 67 -4 89 -14 89 -7 0 -12 6 -11 13 3 25 -1 38 -11 32
-5 -3 -10 1 -10 11 0 11 -6 15 -20 11 -13 -3 -20 0 -20 9 0 8 -6 14 -14 14 -8
0 -16 5 -18 11 -5 16 -225 16 -240 1 -7 -7 -18 -12 -25 -12 -16 0 -163 -146
-155 -154 3 -3 0 -6 -7 -6 -15 0 -81 -65 -81 -80 0 -6 -5 -8 -10 -5 -6 3 -13
-1 -16 -9 -3 -9 -13 -16 -21 -16 -9 0 -24 -9 -33 -21 -10 -11 -28 -21 -39 -22
-12 -1 -21 -5 -21 -10 0 -16 -28 -37 -49 -37 -12 0 -21 -4 -21 -9 0 -5 -10
-11 -22 -13 -13 -2 -22 -9 -21 -15 2 -7 -6 -10 -17 -8 -11 2 -22 0 -25 -5 -9
-15 -67 -40 -92 -40 -12 0 -23 -4 -23 -10 0 -5 -13 -10 -29 -10 -16 0 -34 -6
-40 -14 -6 -7 -25 -12 -41 -11 -19 2 -30 -2 -30 -11 0 -8 -14 -13 -42 -12 -23
0 -44 -5 -46 -11 -2 -6 -27 -11 -57 -11 -31 0 -55 -5 -57 -12 -6 -17 -476 -18
-490 -1 -6 8 -35 13 -73 13 -41 0 -65 4 -68 13 -2 7 -20 12 -43 11 -22 -1 -42
4 -46 10 -4 6 -20 11 -35 12 -16 0 -27 6 -25 12 1 8 -13 12 -39 12 -24 0 -38
4 -34 10 4 6 -5 10 -19 10 -14 0 -26 5 -26 10 0 6 -9 10 -19 10 -11 0 -21 3
-23 8 -5 11 -67 42 -84 42 -9 0 -12 4 -9 10 3 5 -3 10 -15 10 -22 0 -50 21
-50 38 0 6 -8 9 -17 7 -10 -1 -32 13 -49 31 -18 19 -38 34 -46 34 -7 0 -28 16
-47 35 -18 19 -37 35 -42 35 -6 0 -7 5 -4 10 3 6 -1 10 -9 10 -9 0 -16 3 -16
8 0 13 -47 62 -60 62 -7 0 -10 3 -7 6 3 4 -5 15 -18 26 -14 11 -25 26 -25 35
0 9 -16 30 -35 49 -19 18 -35 40 -35 48 0 9 -4 16 -10 16 -5 0 -10 12 -10 26
0 14 -4 23 -10 19 -10 -6 -14 7 -11 33 1 6 -4 12 -12 12 -9 0 -13 9 -12 25 2
14 -2 23 -8 22 -7 -1 -12 11 -12 31 0 20 -5 32 -13 32 -8 0 -12 6 -9 13 3 9
73 12 305 12 200 0 302 3 302 10 0 6 11 18 24 29 14 10 22 24 19 32 -3 8 2 17
10 20 11 4 15 15 12 34 -2 17 2 31 10 34 18 6 17 193 0 200 -7 2 -11 16 -10
30 2 14 -3 30 -11 37 -8 6 -14 18 -14 26 0 19 -24 43 -43 43 -8 0 -17 6 -20
13 -3 9 -71 12 -296 11 l-291 -1 0 34 c0 18 5 33 10 33 6 0 10 9 10 20 0 11 6
23 14 26 8 3 12 17 11 35 -2 17 2 29 9 29 7 0 13 10 13 22 1 13 7 24 13 26 5
2 10 11 10 19 0 9 11 26 25 39 14 13 24 27 23 31 -4 12 28 54 35 46 4 -3 7 1
7 10 0 9 3 16 8 14 4 -1 8 3 10 8 2 6 10 13 17 18 8 4 12 14 9 22 -4 9 0 15
10 15 9 0 16 4 16 8 0 16 76 88 88 84 7 -2 15 3 18 12 3 9 9 14 13 13 3 -2 14
4 24 15 9 10 14 18 11 18 -3 0 4 8 17 19 13 10 29 16 36 14 7 -3 13 2 13 11 0
9 7 16 15 16 8 0 15 5 15 10 0 6 8 10 18 10 10 0 24 9 32 20 8 11 23 20 33 20
9 0 20 7 24 16 3 8 12 13 20 10 7 -3 16 1 19 9 4 8 17 15 30 15 13 0 24 5 24
10 0 6 11 10 25 10 15 0 24 5 23 13 -2 7 6 11 21 9 13 -1 30 3 38 10 9 7 27
14 42 16 14 2 28 7 29 13 2 5 19 9 38 9 19 0 34 5 34 10 0 6 24 10 54 10 34 0
56 5 59 13 3 8 29 12 81 11 47 0 76 4 76 11 0 7 52 10 155 11 115 0 155 -3
155 -12 0 -9 21 -12 72 -10 47 1 75 -3 84 -11 7 -7 31 -13 53 -13 23 0 41 -4
41 -10 0 -5 20 -10 45 -10 30 0 45 -4 45 -13 0 -7 11 -12 27 -11 15 0 34 -5
41 -13 8 -7 18 -11 23 -7 5 3 12 -2 15 -10 4 -10 19 -16 40 -16 19 0 34 -4 34
-10 0 -5 9 -10 19 -10 10 0 22 -7 25 -16 3 -8 11 -12 17 -8 7 4 18 -1 25 -11
7 -10 20 -15 29 -12 9 4 15 1 15 -8 0 -8 7 -15 15 -15 8 0 15 -4 15 -10 0 -5
7 -10 16 -10 9 0 25 -9 35 -21 10 -11 24 -21 31 -23 7 -1 31 -18 52 -38 21
-20 45 -34 52 -31 8 3 14 0 14 -7 0 -15 25 -40 40 -40 6 0 8 -4 5 -10 -3 -5
-2 -10 4 -10 13 0 70 -58 63 -65 -3 -3 2 -5 10 -5 10 0 15 -8 14 -22 -1 -14 4
-22 12 -20 6 1 12 -5 12 -14 0 -11 6 -14 20 -9 14 5 20 2 20 -9 0 -12 10 -16
35 -16 19 0 35 -4 35 -10 0 -6 33 -10 80 -10 47 0 80 4 80 10 0 6 16 10 36 10
21 0 33 4 29 10 -3 6 1 10 9 10 9 0 16 5 16 11 0 6 15 25 33 41 18 18 32 41
32 55 1 13 7 28 15 33 13 8 13 13 -1 37 -9 15 -15 38 -14 51 1 13 -4 22 -13
22 -8 0 -12 6 -9 14 6 16 -44 76 -63 76 -6 0 -9 3 -7 8 5 9 -30 42 -37 35 -3
-4 -6 -1 -6 6 0 16 -25 41 -41 41 -7 0 -10 3 -7 6 10 10 -71 84 -92 84 -11 0
-20 4 -20 9 0 14 -52 61 -67 61 -17 0 -43 24 -43 39 0 5 -9 8 -19 6 -12 -2
-26 6 -38 21 -10 13 -26 24 -35 24 -10 0 -18 5 -18 10 0 6 -12 10 -26 10 -14
0 -23 4 -19 10 3 6 -5 10 -18 10 -14 0 -28 7 -31 16 -3 8 -10 13 -15 10 -5 -4
-16 1 -24 9 -9 8 -23 15 -31 15 -9 0 -16 5 -16 10 0 6 -11 10 -25 10 -15 0
-25 6 -25 14 0 9 -7 12 -20 9 -14 -4 -20 0 -20 10 0 11 -9 14 -31 13 -18 -1
-33 3 -36 11 -3 7 -20 13 -39 13 -19 0 -34 5 -34 10 0 6 -16 10 -36 10 -21 0
-33 4 -29 10 7 11 -3 13 -53 11 -19 0 -35 5 -38 13 -4 10 -20 13 -55 11 -36
-2 -52 1 -56 11 -4 10 -26 14 -85 14 -50 0 -77 4 -73 10 4 7 -88 10 -269 10
-177 0 -276 -4 -276 -10z"/>
<path d="M3059 3004 c-8 -10 -27 -13 -60 -11 -36 3 -49 1 -49 -9 0 -8 -11 -14
-25 -14 -14 0 -25 -4 -25 -10 0 -5 -7 -10 -15 -10 -21 0 -165 -143 -165 -163
0 -10 -4 -17 -10 -17 -5 0 -10 -12 -10 -26 0 -14 -4 -23 -10 -19 -10 6 -11 4
-13 -53 -1 -18 -7 -36 -13 -40 -15 -11 -14 -130 2 -136 8 -3 12 -19 10 -45 -2
-29 1 -41 10 -41 8 0 14 -11 14 -25 0 -14 5 -25 10 -25 6 0 10 -11 10 -25 0
-14 4 -24 8 -23 5 2 32 -22 62 -52 30 -30 57 -54 62 -53 4 2 8 -4 8 -12 0 -8
9 -15 20 -15 11 0 20 -4 20 -10 0 -5 11 -10 25 -10 14 0 24 -5 22 -12 -1 -9
14 -12 56 -10 45 2 57 0 57 -12 0 -10 11 -14 41 -12 22 1 44 7 47 12 4 5 29
11 57 12 27 1 51 6 53 12 2 5 17 10 34 10 19 0 38 8 50 22 10 12 25 23 33 24
17 2 91 75 87 86 -1 5 3 7 10 6 6 -2 14 6 16 17 2 11 13 27 23 36 11 10 19 29
19 48 0 18 5 31 13 31 16 0 15 262 -2 268 -6 2 -11 19 -11 38 0 19 -4 34 -10
34 -5 0 -10 12 -10 27 0 14 -3 24 -6 20 -7 -7 -84 69 -84 85 0 6 -3 9 -6 5 -3
-3 -16 5 -29 19 -12 13 -30 24 -39 24 -9 0 -16 5 -16 10 0 6 -16 10 -35 10
-22 0 -35 5 -35 13 0 8 -15 12 -45 11 -29 -1 -45 3 -45 11 0 17 -96 17 -111
-1z"/>
</g>
</svg>
